<mxfile host="Electron" modified="2024-05-24T19:38:54.782Z" agent="Mozilla/5.0 (Windows NT 10.0; Win64; x64) AppleWebKit/537.36 (KHTML, like Gecko) draw.io/21.7.5 Chrome/114.0.5735.289 Electron/25.8.1 Safari/537.36" etag="g6KmhpZA0FWZQM6RnimR" version="21.7.5" type="device">
  <diagram name="Page-1" id="OoyVBuZllAOyOU8BxOXu">
    <mxGraphModel dx="1143" dy="599" grid="1" gridSize="10" guides="1" tooltips="1" connect="1" arrows="1" fold="1" page="1" pageScale="1" pageWidth="827" pageHeight="1169" math="0" shadow="0">
      <root>
        <mxCell id="0" />
        <mxCell id="1" parent="0" />
        <mxCell id="RaK3DlM_WNNo0GLl2pRf-1" value="Llamada" style="swimlane;fontStyle=1;align=center;verticalAlign=top;childLayout=stackLayout;horizontal=1;startSize=26;horizontalStack=0;resizeParent=1;resizeParentMax=0;resizeLast=0;collapsible=1;marginBottom=0;whiteSpace=wrap;html=1;" parent="1" vertex="1">
          <mxGeometry x="49" y="444" width="260" height="140" as="geometry" />
        </mxCell>
        <mxCell id="RaK3DlM_WNNo0GLl2pRf-2" value="- tipoDeLlamada: String&lt;br&gt;- origen: String&lt;br&gt;- destino: String&lt;br&gt;- duracion: Integer" style="text;strokeColor=none;fillColor=none;align=left;verticalAlign=top;spacingLeft=4;spacingRight=4;overflow=hidden;rotatable=0;points=[[0,0.5],[1,0.5]];portConstraint=eastwest;whiteSpace=wrap;html=1;" parent="RaK3DlM_WNNo0GLl2pRf-1" vertex="1">
          <mxGeometry y="26" width="260" height="64" as="geometry" />
        </mxCell>
        <mxCell id="RaK3DlM_WNNo0GLl2pRf-3" value="" style="line;strokeWidth=1;fillColor=none;align=left;verticalAlign=middle;spacingTop=-1;spacingLeft=3;spacingRight=3;rotatable=0;labelPosition=right;points=[];portConstraint=eastwest;strokeColor=inherit;" parent="RaK3DlM_WNNo0GLl2pRf-1" vertex="1">
          <mxGeometry y="90" width="260" height="8" as="geometry" />
        </mxCell>
        <mxCell id="RaK3DlM_WNNo0GLl2pRf-4" value="+ &amp;lt;&amp;lt;create&amp;gt;&amp;gt; Llamada (tipoLlamada: String, origen:String, destino:String, duracion:Integer)&lt;br&gt;" style="text;strokeColor=none;fillColor=none;align=left;verticalAlign=top;spacingLeft=4;spacingRight=4;overflow=hidden;rotatable=0;points=[[0,0.5],[1,0.5]];portConstraint=eastwest;whiteSpace=wrap;html=1;" parent="RaK3DlM_WNNo0GLl2pRf-1" vertex="1">
          <mxGeometry y="98" width="260" height="42" as="geometry" />
        </mxCell>
        <mxCell id="RaK3DlM_WNNo0GLl2pRf-7" value="GestorNumeroDisponibles" style="swimlane;fontStyle=1;align=center;verticalAlign=top;childLayout=stackLayout;horizontal=1;startSize=26;horizontalStack=0;resizeParent=1;resizeParentMax=0;resizeLast=0;collapsible=1;marginBottom=0;whiteSpace=wrap;html=1;" parent="1" vertex="1">
          <mxGeometry x="529" y="444" width="250" height="110" as="geometry" />
        </mxCell>
        <mxCell id="RaK3DlM_WNNo0GLl2pRf-8" value="- lineas: String [*]&lt;br&gt;- tipoGenerador: String" style="text;strokeColor=none;fillColor=none;align=left;verticalAlign=top;spacingLeft=4;spacingRight=4;overflow=hidden;rotatable=0;points=[[0,0.5],[1,0.5]];portConstraint=eastwest;whiteSpace=wrap;html=1;" parent="RaK3DlM_WNNo0GLl2pRf-7" vertex="1">
          <mxGeometry y="26" width="250" height="34" as="geometry" />
        </mxCell>
        <mxCell id="RaK3DlM_WNNo0GLl2pRf-9" value="" style="line;strokeWidth=1;fillColor=none;align=left;verticalAlign=middle;spacingTop=-1;spacingLeft=3;spacingRight=3;rotatable=0;labelPosition=right;points=[];portConstraint=eastwest;strokeColor=inherit;" parent="RaK3DlM_WNNo0GLl2pRf-7" vertex="1">
          <mxGeometry y="60" width="250" height="8" as="geometry" />
        </mxCell>
        <mxCell id="RaK3DlM_WNNo0GLl2pRf-10" value="+ obtenerNumeroLibre(): String&lt;br&gt;+ cambiarTipoGenerador(valor:String)" style="text;strokeColor=none;fillColor=none;align=left;verticalAlign=top;spacingLeft=4;spacingRight=4;overflow=hidden;rotatable=0;points=[[0,0.5],[1,0.5]];portConstraint=eastwest;whiteSpace=wrap;html=1;" parent="RaK3DlM_WNNo0GLl2pRf-7" vertex="1">
          <mxGeometry y="68" width="250" height="42" as="geometry" />
        </mxCell>
        <mxCell id="RaK3DlM_WNNo0GLl2pRf-11" value="Cliente" style="swimlane;fontStyle=1;align=center;verticalAlign=top;childLayout=stackLayout;horizontal=1;startSize=26;horizontalStack=0;resizeParent=1;resizeParentMax=0;resizeLast=0;collapsible=1;marginBottom=0;whiteSpace=wrap;html=1;" parent="1" vertex="1">
          <mxGeometry x="339" y="444" width="160" height="144" as="geometry" />
        </mxCell>
        <mxCell id="RaK3DlM_WNNo0GLl2pRf-12" value="- tipo: String&lt;br&gt;- nombre: String&lt;br&gt;- numeroTelefono: String&lt;br&gt;- cuit: String&lt;br&gt;- dni: String" style="text;strokeColor=none;fillColor=none;align=left;verticalAlign=top;spacingLeft=4;spacingRight=4;overflow=hidden;rotatable=0;points=[[0,0.5],[1,0.5]];portConstraint=eastwest;whiteSpace=wrap;html=1;" parent="RaK3DlM_WNNo0GLl2pRf-11" vertex="1">
          <mxGeometry y="26" width="160" height="84" as="geometry" />
        </mxCell>
        <mxCell id="RaK3DlM_WNNo0GLl2pRf-13" value="" style="line;strokeWidth=1;fillColor=none;align=left;verticalAlign=middle;spacingTop=-1;spacingLeft=3;spacingRight=3;rotatable=0;labelPosition=right;points=[];portConstraint=eastwest;strokeColor=inherit;" parent="RaK3DlM_WNNo0GLl2pRf-11" vertex="1">
          <mxGeometry y="110" width="160" height="8" as="geometry" />
        </mxCell>
        <mxCell id="RaK3DlM_WNNo0GLl2pRf-14" value="+" style="text;strokeColor=none;fillColor=none;align=left;verticalAlign=top;spacingLeft=4;spacingRight=4;overflow=hidden;rotatable=0;points=[[0,0.5],[1,0.5]];portConstraint=eastwest;whiteSpace=wrap;html=1;" parent="RaK3DlM_WNNo0GLl2pRf-11" vertex="1">
          <mxGeometry y="118" width="160" height="26" as="geometry" />
        </mxCell>
        <mxCell id="RaK3DlM_WNNo0GLl2pRf-15" value="Empresa" style="swimlane;fontStyle=1;align=center;verticalAlign=top;childLayout=stackLayout;horizontal=1;startSize=26;horizontalStack=0;resizeParent=1;resizeParentMax=0;resizeLast=0;collapsible=1;marginBottom=0;whiteSpace=wrap;html=1;" parent="1" vertex="1">
          <mxGeometry x="208" y="160" width="410" height="230" as="geometry" />
        </mxCell>
        <mxCell id="RaK3DlM_WNNo0GLl2pRf-16" value="- descuentoJur: Real&lt;div&gt;- descuentoFis: Real&lt;/div&gt;" style="text;strokeColor=none;fillColor=none;align=left;verticalAlign=top;spacingLeft=4;spacingRight=4;overflow=hidden;rotatable=0;points=[[0,0.5],[1,0.5]];portConstraint=eastwest;whiteSpace=wrap;html=1;" parent="RaK3DlM_WNNo0GLl2pRf-15" vertex="1">
          <mxGeometry y="26" width="410" height="34" as="geometry" />
        </mxCell>
        <mxCell id="RaK3DlM_WNNo0GLl2pRf-17" value="" style="line;strokeWidth=1;fillColor=none;align=left;verticalAlign=middle;spacingTop=-1;spacingLeft=3;spacingRight=3;rotatable=0;labelPosition=right;points=[];portConstraint=eastwest;strokeColor=inherit;" parent="RaK3DlM_WNNo0GLl2pRf-15" vertex="1">
          <mxGeometry y="60" width="410" height="8" as="geometry" />
        </mxCell>
        <mxCell id="RaK3DlM_WNNo0GLl2pRf-18" value="&amp;lt;&amp;lt;create&amp;gt;&amp;gt;Empresa(descuentoJur: Real, descuentoFis:Real)&lt;br&gt;&lt;div&gt;+agegarNumeroTelefono(str: String): Boolean&lt;/div&gt;&lt;div&gt;+obtenerNumeroLibre():String&lt;/div&gt;&lt;div&gt;+registrarUsuario(data:String,nombre:String,tipo:String):Cliente&lt;/div&gt;&lt;div&gt;+registrarLlamada(origen:Cliente, destino: Cliente, t:String, duracion: int).&lt;/div&gt;&lt;div&gt;Llamada&lt;/div&gt;&lt;div&gt;+calcularMontoTotalLlamadas(cliente: Cliente): Real&lt;/div&gt;&lt;div&gt;+cantidadDeUsuarios(): Integer&lt;/div&gt;&lt;div&gt;+existeUsuario(persona: Cliente): Boolean&lt;/div&gt;&lt;div&gt;&lt;span style=&quot;background-color: initial;&quot;&gt;+getGestorNumeros(): GestorNumerosDisponibles&lt;/span&gt;&lt;br&gt;&lt;/div&gt;&lt;div&gt;&lt;br&gt;&lt;/div&gt;&lt;div&gt;&lt;br&gt;&lt;/div&gt;&lt;div&gt;&lt;br&gt;&lt;/div&gt;&lt;div&gt;&lt;br&gt;&lt;/div&gt;&lt;div&gt;&lt;br&gt;&lt;/div&gt;" style="text;strokeColor=none;fillColor=none;align=left;verticalAlign=top;spacingLeft=4;spacingRight=4;overflow=hidden;rotatable=0;points=[[0,0.5],[1,0.5]];portConstraint=eastwest;whiteSpace=wrap;html=1;" parent="RaK3DlM_WNNo0GLl2pRf-15" vertex="1">
          <mxGeometry y="68" width="410" height="162" as="geometry" />
        </mxCell>
        <mxCell id="RaK3DlM_WNNo0GLl2pRf-19" value="" style="endArrow=classic;html=1;rounded=0;exitX=0.515;exitY=1;exitDx=0;exitDy=0;exitPerimeter=0;entryX=0.5;entryY=0;entryDx=0;entryDy=0;" parent="1" source="RaK3DlM_WNNo0GLl2pRf-18" target="RaK3DlM_WNNo0GLl2pRf-11" edge="1">
          <mxGeometry width="50" height="50" relative="1" as="geometry">
            <mxPoint x="400" y="440" as="sourcePoint" />
            <mxPoint x="450" y="390" as="targetPoint" />
          </mxGeometry>
        </mxCell>
        <mxCell id="RaK3DlM_WNNo0GLl2pRf-20" value="0..*&lt;br&gt;clientes" style="text;html=1;align=center;verticalAlign=middle;resizable=0;points=[];autosize=1;strokeColor=none;fillColor=none;" parent="1" vertex="1">
          <mxGeometry x="414" y="390" width="60" height="40" as="geometry" />
        </mxCell>
        <mxCell id="RaK3DlM_WNNo0GLl2pRf-21" style="edgeStyle=orthogonalEdgeStyle;rounded=0;orthogonalLoop=1;jettySize=auto;html=1;entryX=0.5;entryY=0;entryDx=0;entryDy=0;" parent="1" source="RaK3DlM_WNNo0GLl2pRf-18" target="RaK3DlM_WNNo0GLl2pRf-1" edge="1">
          <mxGeometry relative="1" as="geometry" />
        </mxCell>
        <mxCell id="RaK3DlM_WNNo0GLl2pRf-22" value="0..*&lt;br&gt;llamadas" style="text;html=1;align=center;verticalAlign=middle;resizable=0;points=[];autosize=1;strokeColor=none;fillColor=none;" parent="1" vertex="1">
          <mxGeometry x="115" y="353" width="70" height="40" as="geometry" />
        </mxCell>
        <mxCell id="RaK3DlM_WNNo0GLl2pRf-23" style="edgeStyle=orthogonalEdgeStyle;rounded=0;orthogonalLoop=1;jettySize=auto;html=1;entryX=0.5;entryY=0;entryDx=0;entryDy=0;" parent="1" source="RaK3DlM_WNNo0GLl2pRf-18" target="RaK3DlM_WNNo0GLl2pRf-7" edge="1">
          <mxGeometry relative="1" as="geometry" />
        </mxCell>
        <mxCell id="RaK3DlM_WNNo0GLl2pRf-24" value="guia" style="text;html=1;align=center;verticalAlign=middle;resizable=0;points=[];autosize=1;strokeColor=none;fillColor=none;" parent="1" vertex="1">
          <mxGeometry x="614" y="286" width="50" height="30" as="geometry" />
        </mxCell>
        <mxCell id="pXQt08IO1Ci4iLSx1MLF-1" value="" style="endArrow=classic;html=1;rounded=0;exitX=0.629;exitY=1.016;exitDx=0;exitDy=0;exitPerimeter=0;entryX=0.5;entryY=1.015;entryDx=0;entryDy=0;entryPerimeter=0;edgeStyle=orthogonalEdgeStyle;" parent="1" source="RaK3DlM_WNNo0GLl2pRf-14" target="RaK3DlM_WNNo0GLl2pRf-4" edge="1">
          <mxGeometry width="50" height="50" relative="1" as="geometry">
            <mxPoint x="400" y="630" as="sourcePoint" />
            <mxPoint x="240" y="710" as="targetPoint" />
            <Array as="points">
              <mxPoint x="440" y="610" />
              <mxPoint x="179" y="610" />
            </Array>
          </mxGeometry>
        </mxCell>
        <mxCell id="pXQt08IO1Ci4iLSx1MLF-2" value="0..*&lt;br&gt;llamadas" style="text;html=1;align=center;verticalAlign=middle;resizable=0;points=[];autosize=1;strokeColor=none;fillColor=none;" parent="1" vertex="1">
          <mxGeometry x="235" y="603" width="70" height="40" as="geometry" />
        </mxCell>
      </root>
    </mxGraphModel>
  </diagram>
</mxfile>
